<?xml version="1.0" standalone="no"?>
<!DOCTYPE svg PUBLIC "-//W3C//DTD SVG 20010904//EN"
 "http://www.w3.org/TR/2001/REC-SVG-20010904/DTD/svg10.dtd">
<svg version="1.0" xmlns="http://www.w3.org/2000/svg"
 width="128.000000pt" height="128.000000pt" viewBox="0 0 128.000000 128.000000"
 preserveAspectRatio="xMidYMid meet">

<g transform="translate(0.000000,128.000000) scale(0.100000,-0.100000)"
fill="#000000" stroke="none">
<path d="M501 1265 c-178 -39 -348 -172 -429 -336 -127 -256 -81 -540 118
-739 251 -252 649 -252 900 0 252 251 252 649 0 900 -155 156 -375 221 -589
175z m274 -67 c197 -41 379 -223 425 -427 16 -69 16 -193 0 -262 -47 -205
-224 -382 -429 -429 -192 -44 -396 15 -536 155 -112 112 -168 246 -168 405 0
156 56 292 163 401 148 149 331 202 545 157z"/>
<path d="M587 999 c-67 -10 -131 -51 -162 -103 -38 -66 -30 -117 21 -130 35
-9 68 14 94 64 24 47 45 60 100 60 52 0 90 -34 90 -82 0 -28 -11 -43 -74 -103
-41 -38 -79 -80 -85 -92 -17 -33 -13 -71 10 -94 30 -30 69 -22 95 21 27 42 44
60 119 124 32 27 64 64 71 82 26 62 13 133 -35 188 -43 49 -153 78 -244 65z"/>
<path d="M593 425 c-40 -17 -56 -60 -38 -102 26 -62 120 -59 143 5 23 66 -40
124 -105 97z"/>
</g>
</svg>
